<svg width="329" height="40" viewBox="0 0 329 40" fill="none" xmlns="http://www.w3.org/2000/svg">
<g clip-path="url(#clip0_3865_2579)">
<path d="M14.8557 5.80469L7.84903 29.0459L0 21.0114L14.8557 5.80469Z" fill="white"/>
<path d="M20.2077 0.328125L18.5471 39.9955L10.4453 31.7054L17.8792 2.71168L20.2077 0.328125Z" fill="white"/>
<path d="M27.3047 5.80469L34.3083 29.0459L42.1574 21.0114L27.3047 5.80469Z" fill="white"/>
<path d="M21.9609 0.328125L23.6246 39.9955L31.7233 31.7054L24.2895 2.71168L21.9609 0.328125Z" fill="white"/>
<path d="M151.259 19.8639C151.259 23.35 149.243 27.535 144.758 28.8654C141.181 29.9278 137.835 29.4967 134.971 26.8052C133.347 25.2747 132.468 23.3192 132.243 21.0927C131.752 16.6427 134.583 12.393 138.873 11.3583C142.583 10.4591 145.994 11.1242 148.756 13.982C150.38 15.6758 151.193 17.7668 151.292 19.8609H151.256L151.259 19.8639ZM148.789 20.8278C148.789 18.6383 148.497 17.4065 147.814 16.0453C145.344 11.1951 138.81 10.767 136.015 15.3155C134.228 18.2041 134.195 21.2959 135.624 24.3169C137.411 28.1017 141.963 29.3335 145.411 27.0084C147.784 25.4132 148.726 23.0205 148.789 20.797V20.8309V20.8278Z" fill="white"/>
<path d="M156.18 15.2837V29.3325H154.977V10.8984C159.82 15.6471 164.601 20.3002 169.444 25.0458V11.0309H170.648V29.431C165.804 24.7132 161.057 20.0292 156.18 15.2837Z" fill="white"/>
<path d="M80.659 27.8389V29.3324H69.4104C69.0524 29.3324 68.9531 29.2339 68.9531 28.8674V11H80.5928V12.4597H71.3599V18.9359H79.2631V20.1986H71.3599V27.805H80.5928L80.659 27.8389Z" fill="white"/>
<path d="M55.5906 22.0955V29.3355H53.25V11H59.2308C61.084 11 62.7086 11.5974 63.945 13.091C66.2856 15.9149 65.1785 20.1986 61.8 21.5628C60.9215 21.9292 60.0431 22.0955 59.1014 22.0955H55.5876H55.5906ZM55.5906 20.8699H58.6441C60.7892 20.7713 62.4137 19.1423 62.5792 16.8172C62.7116 15.0249 61.7007 12.7984 59.3932 12.3673C58.253 12.1333 57.0527 12.2349 55.9155 12.2041C55.8162 12.2041 55.7229 12.2041 55.6237 12.238V20.873H55.5906V20.8699Z" fill="white"/>
<path d="M102.374 27.8701H111.64V29.3298H100V11.0312H111.607V12.4602H102.374V18.9703H110.304V20.1959H102.374V27.867V27.8701Z" fill="white"/>
<path d="M114.167 11.0312H130.392V12.2939C130.392 12.3924 130.166 12.494 130.034 12.494H123.499V29.3329H121.126V12.494H114.654C114.296 12.494 114.137 12.3955 114.197 12.029V11.0312H114.164H114.167Z" fill="white"/>
<path d="M84.5264 11.0312H86.867V27.8701H96.1962V29.1666C96.1962 29.2651 95.9706 29.4006 95.8382 29.4006H84.5565V11.0312H84.5234H84.5264Z" fill="white"/>
<path d="M59.0485 38.1896H54.6682L53.9763 39.4369H53.2031L56.4071 33.8906H57.2856L60.5106 39.4369H59.7555L59.0485 38.1896ZM58.7387 37.6323L56.8463 34.3803L54.9781 37.6323H58.7387Z" fill="white"/>
<path d="M62.3966 33.8906H66.9785C67.4448 33.8968 67.8118 34.0015 68.0826 34.2109C68.3534 34.4172 68.4887 34.7775 68.4887 35.2887C68.4887 35.7168 68.4226 36.0093 68.2932 36.1664C68.1638 36.3235 67.8901 36.4405 67.4719 36.5113C67.9442 36.5329 68.2601 36.6406 68.4256 36.8316C68.591 37.0225 68.6723 37.3582 68.6723 37.8324C68.6723 38.4545 68.5248 38.8764 68.233 39.1012C67.9412 39.326 67.496 39.4369 66.9003 39.4369H62.3906V33.8906H62.3966ZM63.0555 36.268H66.7198C67.0778 36.2742 67.3485 36.2157 67.5321 36.0986C67.7156 35.9816 67.8088 35.7291 67.8088 35.3472C67.8088 34.9654 67.7276 34.7437 67.5621 34.6328C67.3967 34.5219 67.15 34.4665 66.8191 34.4665L63.0585 34.4573V36.2711L63.0555 36.268ZM63.0555 38.8795H66.7769C67.162 38.8856 67.4599 38.8302 67.6735 38.7132C67.8871 38.5961 67.9954 38.3375 67.9954 37.931V37.7924C67.9954 37.7462 67.9954 37.6969 67.9863 37.6477C67.9743 37.5152 67.9472 37.3859 67.9051 37.2658C67.863 37.1426 67.7818 37.0471 67.6614 36.9732C67.5682 36.924 67.4719 36.8901 67.3696 36.8685C67.2673 36.8501 67.165 36.8377 67.0597 36.8316H66.8491L66.7589 36.8223H63.0525V38.8764L63.0555 38.8795Z" fill="white"/>
<path d="M73.7063 34.448V39.4399H73.2912V34.448H70.5625V33.8906H76.453V34.448H73.7063Z" fill="white"/>
<path d="M78.4219 36.7139V36.4398C78.4219 36.3443 78.4219 36.255 78.4309 36.1657C78.4309 35.9779 78.4399 35.79 78.455 35.5991C78.47 35.4112 78.4971 35.2265 78.5362 35.0509C78.6445 34.5582 78.8641 34.2379 79.198 34.0932C79.532 33.9485 79.9141 33.8715 80.3473 33.8591C80.5488 33.853 80.7474 33.8499 80.949 33.8468C81.1505 33.8438 81.3491 33.8438 81.5507 33.8438H82.745C83.8702 33.8438 84.5922 33.9977 84.9111 34.3026C85.23 34.6075 85.3864 35.325 85.3864 36.4583C85.3864 36.7077 85.3864 36.9572 85.3774 37.2066C85.3714 37.456 85.3563 37.7055 85.3293 37.9549C85.2751 38.4877 85.1157 38.8603 84.8509 39.0789C84.5862 39.2945 84.1921 39.4239 83.6716 39.4608C83.449 39.4824 83.2264 39.4947 83.0007 39.4978C82.7751 39.4978 82.5525 39.5008 82.3298 39.5008H81.1205C80.9309 39.5008 80.7384 39.5008 80.5488 39.4916C80.3563 39.4854 80.1668 39.4731 79.9772 39.4516C79.9502 39.4454 79.9201 39.4423 79.893 39.4423C79.8659 39.4423 79.8358 39.4423 79.8088 39.4331C79.6042 39.3992 79.4056 39.3407 79.2161 39.2545C79.0266 39.1683 78.8731 39.0328 78.7528 38.8418C78.6595 38.6909 78.5934 38.5154 78.5512 38.3091C78.5091 38.1027 78.479 37.8964 78.461 37.6839C78.4459 37.5115 78.4339 37.3421 78.4339 37.1758C78.4339 37.0095 78.4309 36.8555 78.4309 36.717V36.7077L78.4219 36.7139ZM79.1048 36.6862V37.0957C79.1048 37.7055 79.168 38.1582 79.2913 38.4446C79.4147 38.734 79.8148 38.8819 80.4857 38.8942L81.8846 38.9096H82.387C82.4953 38.9157 82.6036 38.9188 82.7149 38.9188C82.8262 38.9188 82.9376 38.9188 83.0519 38.9096C83.1602 38.9034 83.2685 38.8973 83.3798 38.8942C83.4911 38.888 83.5994 38.8819 83.7077 38.8695C84.1409 38.8264 84.4117 38.6755 84.52 38.4199C84.6283 38.1643 84.6824 37.841 84.6824 37.453C84.6824 37.3575 84.6825 37.2651 84.6855 37.1696C84.6885 37.0742 84.6885 36.9787 84.6885 36.8771C84.6945 36.7816 84.6975 36.6892 84.6975 36.5938V36.3105C84.6975 36.2273 84.6975 36.138 84.6945 36.0395C84.6945 35.9409 84.6885 35.8454 84.6824 35.7531C84.6704 35.5652 84.6524 35.3835 84.6223 35.2111C84.5922 35.0386 84.5411 34.9 84.4719 34.7953C84.4328 34.7337 84.3846 34.6814 84.3214 34.6413C84.2583 34.6013 84.1951 34.5674 84.1319 34.5459C84.1259 34.5397 84.1199 34.5366 84.1108 34.5336C84.1018 34.5336 84.0928 34.5305 84.0838 34.5305C83.9965 34.5028 83.9063 34.4843 83.807 34.472C83.7107 34.4597 83.6114 34.4535 83.5152 34.4473C83.461 34.4412 83.4039 34.4381 83.3437 34.4381H83.1722L81.8966 34.4227L80.6361 34.4473C80.0525 34.4597 79.6583 34.5397 79.4538 34.6937C79.2522 34.8477 79.1409 35.2357 79.1258 35.8639L79.1018 36.6892L79.1048 36.6862Z" fill="white"/>
<path d="M95.9964 34.4573L92.6089 39.4399H92.0794L88.6979 34.4573V39.4399H88.0391V33.8906H89.1131L92.3472 38.6485L95.5993 33.8906H96.6553V39.4369H95.9964V34.4573Z" fill="white"/>
<path d="M99.2969 36.7139V36.4398C99.2969 36.3443 99.2969 36.255 99.3059 36.1657C99.3059 35.9779 99.3149 35.79 99.33 35.5991C99.345 35.4112 99.3721 35.2265 99.4112 35.0509C99.5195 34.5582 99.7391 34.2379 100.073 34.0932C100.407 33.9485 100.789 33.8715 101.222 33.8591C101.424 33.853 101.622 33.8499 101.824 33.8468C102.026 33.8438 102.224 33.8438 102.426 33.8438H103.62C104.745 33.8438 105.467 33.9977 105.786 34.3026C106.105 34.6075 106.261 35.325 106.261 36.4583C106.261 36.7077 106.261 36.9572 106.252 37.2066C106.246 37.456 106.231 37.7055 106.204 37.9549C106.15 38.4877 105.991 38.8603 105.726 39.0789C105.461 39.2945 105.067 39.4239 104.547 39.4608C104.324 39.4824 104.101 39.4947 103.876 39.4978C103.65 39.4978 103.427 39.5008 103.205 39.5008H101.995C101.806 39.5008 101.613 39.5008 101.424 39.4916C101.231 39.4854 101.042 39.4731 100.852 39.4516C100.825 39.4454 100.795 39.4423 100.768 39.4423C100.741 39.4423 100.711 39.4423 100.684 39.4331C100.479 39.3992 100.281 39.3407 100.091 39.2545C99.9016 39.1683 99.7481 39.0328 99.6278 38.8418C99.5345 38.6909 99.4684 38.5154 99.4262 38.3091C99.3841 38.1027 99.354 37.8964 99.336 37.6839C99.3209 37.5115 99.3089 37.3421 99.3089 37.1758C99.3089 37.0095 99.3059 36.8555 99.3059 36.717V36.7077L99.2969 36.7139ZM99.9798 36.6862V37.0957C99.9798 37.7055 100.043 38.1582 100.166 38.4446C100.29 38.734 100.69 38.8819 101.361 38.8942L102.76 38.9096H103.262C103.37 38.9157 103.479 38.9188 103.59 38.9188C103.701 38.9188 103.813 38.9188 103.927 38.9096C104.035 38.9034 104.143 38.8973 104.255 38.8942C104.366 38.888 104.474 38.8819 104.583 38.8695C105.016 38.8264 105.287 38.6755 105.395 38.4199C105.503 38.1643 105.557 37.841 105.557 37.453C105.557 37.3575 105.557 37.2651 105.56 37.1696C105.563 37.0742 105.563 36.9787 105.563 36.8771C105.569 36.7816 105.572 36.6892 105.572 36.5938V36.3105C105.572 36.2273 105.572 36.138 105.569 36.0395C105.569 35.9409 105.563 35.8454 105.557 35.7531C105.545 35.5652 105.527 35.3835 105.497 35.2111C105.467 35.0386 105.416 34.9 105.347 34.7953C105.308 34.7337 105.26 34.6814 105.196 34.6413C105.133 34.6013 105.07 34.5674 105.007 34.5459C105.001 34.5397 104.995 34.5366 104.986 34.5336C104.977 34.5336 104.968 34.5305 104.959 34.5305C104.872 34.5028 104.781 34.4843 104.682 34.472C104.586 34.4597 104.486 34.4535 104.39 34.4473C104.336 34.4412 104.279 34.4381 104.219 34.4381H104.047L102.772 34.4227L101.511 34.4473C100.927 34.4597 100.533 34.5397 100.329 34.6937C100.127 34.8477 100.016 35.2357 100.001 35.8639L99.9768 36.6892L99.9798 36.6862Z" fill="white"/>
<path d="M114.596 39.4409L112.03 34.3504H111.835L109.241 39.4409H108.453L111.362 33.8516H112.475L115.376 39.4409H114.596Z" fill="white"/>
<path d="M123.393 39.4409L120.827 34.3504H120.631L118.038 39.4409H117.25L120.159 33.8516H121.272L124.172 39.4409H123.393Z" fill="white"/>
</g>
<rect opacity="0.5" x="183" y="4" width="1" height="32" fill="white"/>
<path d="M209.16 28.46C210.429 28.46 211.643 28.2453 212.8 27.816C213.976 27.368 215.096 26.6493 216.16 25.66L217.56 27.34C216.496 28.3293 215.208 29.1133 213.696 29.692C212.184 30.2707 210.579 30.56 208.88 30.56C207.125 30.56 205.539 30.336 204.12 29.888C202.72 29.44 201.516 28.7773 200.508 27.9C199.519 27.0227 198.753 25.94 198.212 24.652C197.671 23.364 197.4 21.88 197.4 20.2C197.4 18.52 197.661 17.036 198.184 15.748C198.725 14.46 199.481 13.3773 200.452 12.5C201.441 11.6227 202.627 10.96 204.008 10.512C205.389 10.064 206.92 9.84 208.6 9.84C210.299 9.84 211.904 10.1293 213.416 10.708C214.928 11.2867 216.216 12.0707 217.28 13.06L215.88 14.74C214.816 13.7507 213.696 13.0413 212.52 12.612C211.363 12.164 210.149 11.94 208.88 11.94C207.872 11.94 206.929 12.108 206.052 12.444C205.175 12.7613 204.419 13.256 203.784 13.928C203.149 14.6 202.645 15.4587 202.272 16.504C201.917 17.5307 201.74 18.7627 201.74 20.2C201.74 21.6373 201.917 22.8787 202.272 23.924C202.645 24.9507 203.159 25.8 203.812 26.472C204.484 27.144 205.268 27.648 206.164 27.984C207.079 28.3013 208.077 28.46 209.16 28.46ZM224.141 12.5V18.94H234.361V21.04H224.141V27.9H237.161V30H220.081V10.4H237.161V12.5H224.141ZM250.04 10.4C251.44 10.4 252.691 10.5587 253.792 10.876C254.912 11.1747 255.855 11.6227 256.62 12.22C257.385 12.7987 257.973 13.5173 258.384 14.376C258.795 15.216 259 16.1773 259 17.26C259 18.3427 258.795 19.3133 258.384 20.172C257.973 21.012 257.385 21.7307 256.62 22.328C255.855 22.9067 254.912 23.3547 253.792 23.672C252.691 23.9707 251.44 24.12 250.04 24.12H244.02V30H239.96V10.4H250.04ZM244.02 12.5V22.02H250.04C251.515 22.02 252.653 21.6373 253.456 20.872C254.277 20.088 254.688 18.884 254.688 17.26C254.688 15.636 254.277 14.4413 253.456 13.676C252.653 12.892 251.515 12.5 250.04 12.5H244.02ZM262.081 10.4H271.601C273.038 10.4 274.28 10.5307 275.325 10.792C276.389 11.0347 277.266 11.3893 277.957 11.856C278.648 12.304 279.161 12.8453 279.497 13.48C279.833 14.1147 280.001 14.8147 280.001 15.58C280.001 16.5693 279.721 17.428 279.161 18.156C278.601 18.884 277.761 19.4253 276.641 19.78C278.041 20.06 279.133 20.6107 279.917 21.432C280.72 22.2347 281.121 23.2707 281.121 24.54C281.121 26.22 280.421 27.5547 279.021 28.544C277.64 29.5147 275.446 30 272.441 30H262.081V10.4ZM266.141 21.04V27.9H272.441C273.841 27.9 274.914 27.62 275.661 27.06C276.408 26.5 276.781 25.66 276.781 24.54C276.781 23.3453 276.408 22.468 275.661 21.908C274.914 21.3293 273.841 21.04 272.441 21.04H266.141ZM271.601 18.94C274.308 18.94 275.661 17.82 275.661 15.58C275.661 14.5907 275.316 13.8347 274.625 13.312C273.953 12.7707 272.945 12.5 271.601 12.5H266.141V18.94H271.601ZM300.576 30V14.04H300.296L289.796 30H284.476V10.4H288.536V26.36H288.816L299.316 10.4H304.636V30H300.576ZM319.765 28.46C321.035 28.46 322.248 28.2453 323.405 27.816C324.581 27.368 325.701 26.6493 326.765 25.66L328.165 27.34C327.101 28.3293 325.813 29.1133 324.301 29.692C322.789 30.2707 321.184 30.56 319.485 30.56C317.731 30.56 316.144 30.336 314.725 29.888C313.325 29.44 312.121 28.7773 311.113 27.9C310.124 27.0227 309.359 25.94 308.817 24.652C308.276 23.364 308.005 21.88 308.005 20.2C308.005 18.52 308.267 17.036 308.789 15.748C309.331 14.46 310.087 13.3773 311.057 12.5C312.047 11.6227 313.232 10.96 314.613 10.512C315.995 10.064 317.525 9.84 319.205 9.84C320.904 9.84 322.509 10.1293 324.021 10.708C325.533 11.2867 326.821 12.0707 327.885 13.06L326.485 14.74C325.421 13.7507 324.301 13.0413 323.125 12.612C321.968 12.164 320.755 11.94 319.485 11.94C318.477 11.94 317.535 12.108 316.657 12.444C315.78 12.7613 315.024 13.256 314.389 13.928C313.755 14.6 313.251 15.4587 312.877 16.504C312.523 17.5307 312.345 18.7627 312.345 20.2C312.345 21.6373 312.523 22.8787 312.877 23.924C313.251 24.9507 313.764 25.8 314.417 26.472C315.089 27.144 315.873 27.648 316.769 27.984C317.684 28.3013 318.683 28.46 319.765 28.46Z" fill="white"/>
<defs>
<clipPath id="clip0_3865_2579">
<rect width="171" height="40" fill="white"/>
</clipPath>
</defs>
</svg>
