<svg width="80" height="31" viewBox="0 0 80 31" fill="none" xmlns="http://www.w3.org/2000/svg">
<g clip-path="url(#clip0_539_1357)">
<path d="M57.4743 10.5C56.3497 11.0037 55.0355 10.8615 54.0355 10.1462L52.7156 9.20188L43.8297 2.84869L43.7999 2.82787L43.7733 2.80858L43.7107 2.76543C43.3458 2.51413 42.2181 1.75868 41.3842 1.42869C41.3807 1.43028 41.3775 1.43275 41.374 1.43479C41.3085 1.4046 41.2418 1.37716 41.174 1.35255C41.1685 1.35052 41.1638 1.34798 41.1582 1.34695C40.9466 1.26919 40.7277 1.21272 40.5047 1.1784C40.844 1.18043 41.1797 1.18501 41.5145 1.19261L41.7364 1.19719C47.2953 1.33122 52.2339 2.09935 55.6918 3.25177C58.8774 4.31283 60.8084 5.7014 60.8084 7.21885C60.8084 8.42866 59.5842 9.55519 57.4743 10.5ZM48.3915 12.7471C45.8204 13.0771 42.9762 13.2603 39.9858 13.2603C36.9949 13.2603 34.1512 13.0776 31.5801 12.7476C29.2314 12.3287 30.3627 10.7564 30.9778 10.0813C30.9834 10.0739 30.99 10.0672 30.9973 10.0615C31.1459 9.8985 31.2612 9.79137 31.2817 9.7731L31.2848 9.77005C31.6874 9.36693 32.0951 8.96887 32.5078 8.57597C33.8407 7.3027 35.2241 6.08229 36.6546 4.91761C37.0816 4.56984 37.5086 4.23071 37.934 3.90223L37.937 3.9002C37.9824 3.86291 38.0291 3.82718 38.077 3.79308C38.404 3.55295 39.2343 3.00413 39.9858 3.00616C40.7367 3.00413 41.5671 3.55293 41.8935 3.79308C41.9104 3.80425 41.9248 3.81542 41.9386 3.82659L41.9761 3.85451C41.993 3.86669 42.0068 3.87786 42.0155 3.88548L42.0304 3.89715L42.0371 3.90222C42.4681 4.23549 42.8949 4.57398 43.3175 4.9176C44.7473 6.08253 46.1302 7.30294 47.4627 8.57596C47.8768 8.96973 48.2857 9.36881 48.6893 9.77309L48.7 9.78425C48.738 9.81776 48.8405 9.91625 48.9691 10.0554L48.9708 10.0569C49.5807 10.7179 50.7673 12.3227 48.3915 12.7471ZM25.9351 10.1462C24.9356 10.8615 23.6213 11.0037 22.4972 10.5C20.3875 9.55574 19.1619 8.42866 19.1619 7.21881C19.1619 5.70134 21.0917 4.31284 24.2773 3.25173C27.7341 2.0998 32.6749 1.33116 38.2337 1.19715L38.4561 1.19257C38.7919 1.18496 39.1276 1.18039 39.4669 1.17837C39.2393 1.21289 39.0215 1.26975 38.8124 1.34692L38.8047 1.34895C38.7343 1.3753 38.6649 1.40408 38.5966 1.43525C38.5933 1.43288 38.5899 1.43068 38.5863 1.42865C37.7524 1.75864 36.6243 2.51408 36.2593 2.76538L36.1978 2.80854L36.1404 2.84915L27.2549 9.20187L25.9351 10.1462ZM56.0278 2.02161C52.6069 1.01132 48.2992 0.317884 43.5359 0.0863064C42.3996 0.030796 41.262 0.00201909 40.1243 0H39.8449C38.6865 0.0020275 37.5486 0.0309684 36.4343 0.0863064C31.6693 0.317805 27.3617 1.01029 23.9403 2.02161C19.0401 3.46953 15.9585 5.57037 15.9585 7.90816C15.9585 9.88814 18.1702 11.6996 21.8229 13.0865C23.3057 13.649 25.0265 14.1435 26.9348 14.5492C28.4859 14.8807 30.1619 15.1553 31.934 15.3615C34.4507 15.6559 37.1613 15.8174 39.985 15.8174C42.8083 15.8174 45.5182 15.6564 48.0349 15.3615C49.7135 15.1693 51.382 14.8982 53.0346 14.5492C54.9425 14.143 56.6636 13.649 58.1465 13.0865C61.7996 11.6995 64.0104 9.88814 64.0104 7.90816C64.0104 5.57084 60.9276 3.46953 56.0278 2.02161Z" fill="#B7B7B7"/>
<path d="M2.13594 26.0652C2.13594 24.6097 3.33127 23.4293 4.80537 23.4293H13.3299L14.3976 21.6722H4.44959C3.75937 21.6718 3.0785 21.8304 2.46079 22.1355C1.84308 22.4405 1.30544 22.8836 0.890343 23.4298C0.311674 24.1886 -0.000955081 25.1138 3.66355e-06 26.0648C-0.00123452 27.016 0.311413 27.9416 0.890343 28.7007C1.30514 29.2471 1.84262 29.6905 2.46028 29.9958C3.07794 30.301 3.75884 30.4597 4.44911 30.4594H13.33L14.3977 28.7022H4.80531C4.25397 28.7026 3.71603 28.5339 3.26539 28.2193C2.81476 27.9047 2.47353 27.4596 2.2886 26.9451C2.18753 26.6631 2.13596 26.3645 2.13594 26.0652ZM63.5448 24.3081C63.5448 22.8521 62.3495 21.6722 60.8754 21.6722H49.1472L50.2149 23.4298H60.8754C61.367 23.4298 61.7652 23.8228 61.7652 24.3081C61.7652 24.7935 61.367 25.1864 60.8754 25.1864H49.1473V30.4592H51.2827V26.944H59.1764L61.2319 30.4592H63.5452L61.4539 26.8814C62.0462 26.7524 62.5763 26.427 62.9566 25.9591C63.3369 25.4911 63.5441 24.9088 63.5448 24.3081ZM76.9413 21.672L71.8709 25.5244L66.8006 21.672H63.6688L70.6071 26.9438V30.459H73.0238V26.9443L79.9626 21.672H76.9413ZM34.9039 24.2861C34.9099 24.0567 35.0062 23.8388 35.1721 23.6787C35.338 23.5186 35.5606 23.429 35.7922 23.4291H46.0986L47.1668 21.672H35.438C33.9639 21.672 32.768 22.8524 32.768 24.3079V30.4585H46.0985L47.1667 28.7014H34.9038V26.9443H43.9625L45.0307 25.1867H34.9037L34.9039 24.2861ZM28.6405 21.6719V25.1866H18.514V21.6719H16.3781V30.4589H18.514V26.9437H28.6405V30.4589H30.7764V21.6719H28.6405Z" fill="#D00000"/>
</g>
<defs>
<clipPath id="clip0_539_1357">
<rect width="79.75" height="30.5426" fill="white"/>
</clipPath>
</defs>
</svg>
