<svg width="183" height="40" viewBox="0 0 183 40" fill="none" xmlns="http://www.w3.org/2000/svg">
<mask id="mask0_634_788" style="mask-type:luminance" maskUnits="userSpaceOnUse" x="0" y="0" width="40" height="40">
<path d="M39.7826 0H0V40H39.7826V0Z" fill="white"/>
</mask>
<g mask="url(#mask0_634_788)">
<path d="M25.4607 0C30.4734 0 32.98 5.90937e-05 34.8947 0.980747C36.5788 1.84351 37.9486 3.2203 38.8069 4.9135C39.7823 6.83871 39.7828 9.35964 39.7828 14.4001V25.5999C39.7828 30.6404 39.7823 33.1613 38.8069 35.0864C37.9486 36.7797 36.5788 38.1564 34.8947 39.0193C32.98 40 30.4734 40 25.4607 40H14.322C9.30944 40 6.8027 39.9999 4.88803 39.0193C3.20396 38.1564 1.83412 36.7797 0.975929 35.0864C0.000319134 33.1613 0 30.6404 0 25.5999V14.4001C0 9.35964 0.000319134 6.83871 0.975929 4.9135C1.83412 3.22031 3.20396 1.84351 4.88803 0.980747C6.8027 0.000108395 9.30944 0 14.322 0H25.4607ZM15.418 10.1674C14.1722 10.0647 13.5488 10.0128 13.071 10.1563C12.6275 10.2895 12.2819 10.498 11.9555 10.8273C11.6038 11.1821 11.3733 11.7154 10.9125 12.7804L6.17391 23.7319C5.64381 24.9571 5.37894 25.5704 5.4409 26.1803C5.49206 26.6819 5.75518 27.2389 6.10968 27.5963C6.54062 28.0306 7.12012 28.1967 8.27935 28.5269C9.63825 28.9137 11.066 29.2294 12.6061 29.4643C13.5285 29.6049 13.9907 29.6751 14.4378 29.5354C14.8131 29.418 15.191 29.1554 15.4333 28.8449C15.7223 28.4747 15.8279 27.9806 16.0394 26.9921L16.3046 25.7576C16.449 25.082 16.5203 24.7436 16.6857 24.5159C16.84 24.3037 17.0181 24.1646 17.2609 24.0667C17.5215 23.9616 17.8887 23.9756 18.6223 24.0026C19.0815 24.0193 19.5271 24.0276 19.8914 24.0276C20.2554 24.0276 20.7002 24.0193 21.1591 24.0026C21.8922 23.9756 22.2598 23.9619 22.5204 24.0667C22.7631 24.1646 22.9415 24.3039 23.0956 24.5159C23.2612 24.7436 23.3336 25.082 23.4782 25.7576L23.742 26.9936C23.9533 27.9816 24.0591 28.4761 24.348 28.8463C24.5903 29.1566 24.9683 29.418 25.3435 29.5354C25.7908 29.6754 26.2525 29.6049 27.1752 29.4643C28.7156 29.2296 30.143 28.9137 31.502 28.5269C32.6615 28.1966 33.2421 28.032 33.673 27.5977C34.0278 27.2401 34.2908 26.6821 34.3418 26.1803C34.4039 25.5704 34.1389 24.9571 33.6088 23.7319L28.8703 12.7804C28.4095 11.7155 28.1789 11.1821 27.8273 10.8273C27.5008 10.4979 27.1552 10.2895 26.7117 10.1563C26.2339 10.0127 25.6106 10.0646 24.3647 10.1674C22.9113 10.2873 21.4166 10.3502 19.8914 10.3502C18.3662 10.3502 16.8713 10.2873 15.418 10.1674ZM20.0072 14.4309C20.0176 14.4309 20.0294 14.4309 20.0422 14.4309C20.449 14.4301 20.6526 14.4296 20.8072 14.4964C20.9476 14.557 21.0592 14.6464 21.1479 14.7711C21.2457 14.9087 21.2866 15.1043 21.37 15.4939L21.948 18.192C22.0389 18.6174 22.084 18.8309 22.0248 19.0137C21.9746 19.168 21.8606 19.313 21.7231 19.3987C21.5603 19.5 21.3507 19.5066 20.9329 19.5187C20.5459 19.53 20.1676 19.5354 19.8914 19.5354C19.615 19.5354 19.2359 19.53 18.8484 19.5187C18.4308 19.5066 18.2224 19.5 18.0595 19.3987C17.922 19.3131 17.8082 19.1681 17.758 19.0137C17.6987 18.8309 17.7439 18.6174 17.8348 18.192L18.4101 15.4994C18.4947 15.1031 18.5379 14.905 18.6363 14.767C18.7263 14.6409 18.8373 14.5516 18.9797 14.4909C19.1352 14.4246 19.3432 14.4261 19.7587 14.4294C19.8582 14.4301 19.945 14.4309 20.0072 14.4309Z" fill="#00080D" fill-opacity="0.8"/>
</g>
<path fill-rule="evenodd" clip-rule="evenodd" d="M142.132 12.7988C146.271 12.7988 149.049 15.7428 149.049 21.0216C149.049 26.25 146.018 29.1939 141.829 29.1939C139.658 29.1939 137.891 28.1785 137.033 26.7578V34.0068C137.03 34.181 136.96 34.3462 136.838 34.4693C136.715 34.5926 136.55 34.6638 136.376 34.6668H134.256C134.083 34.6635 133.918 34.5926 133.796 34.4693C133.673 34.3462 133.604 34.1808 133.601 34.0068V13.813C133.604 13.6392 133.674 13.4733 133.796 13.3504C133.919 13.2275 134.083 13.1569 134.256 13.1537H136.376C136.463 13.1509 136.55 13.1661 136.631 13.1982C136.712 13.2303 136.785 13.2787 136.847 13.3405C136.908 13.4023 136.957 13.4761 136.989 13.5573C137.021 13.6386 137.036 13.7256 137.033 13.813V15.336C137.987 13.8647 139.911 12.7988 142.132 12.7988ZM141.319 15.8438C138.896 15.8438 137.028 17.7722 137.028 21.0216C137.028 24.1688 138.75 26.1478 141.173 26.1478C143.546 26.1478 145.464 24.2193 145.464 21.0216C145.464 17.824 143.844 15.8438 141.319 15.8438Z" fill="#00080D" fill-opacity="0.8"/>
<path d="M80.441 13.1549H82.5111C82.6839 13.1581 82.8489 13.2286 82.9711 13.3516C83.0934 13.4745 83.1634 13.6404 83.1667 13.8142V22.1897C83.1667 26.9104 79.9362 29.1951 75.9985 29.1951C71.8586 29.1951 68.6279 26.759 68.6279 22.2403V13.8142C68.6311 13.7242 68.6518 13.6357 68.689 13.5538C68.7262 13.472 68.7792 13.3983 68.8447 13.337C68.9103 13.2758 68.9874 13.2282 69.0713 13.1969C69.1552 13.1657 69.2444 13.1513 69.3339 13.1549H71.5056C71.6785 13.1581 71.8434 13.2286 71.9657 13.3516C72.0879 13.4745 72.158 13.6404 72.1613 13.8142V21.7894C72.1613 24.8343 73.9285 26.154 75.9482 26.154C78.0684 26.154 79.7339 24.7283 79.7339 21.9864V13.8142C79.737 13.7241 79.7578 13.6354 79.7949 13.5535C79.8323 13.4715 79.8853 13.3978 79.9511 13.3365C80.0167 13.2753 80.0939 13.2277 80.1781 13.1966C80.2622 13.1654 80.3515 13.1512 80.441 13.1549Z" fill="#00080D" fill-opacity="0.8"/>
<path d="M90.8411 9.59978C91.0141 9.60334 91.1791 9.67409 91.3013 9.79724C91.4235 9.92036 91.4936 10.0864 91.4969 10.2603V13.1536H98.2619C98.4344 13.1571 98.5991 13.2277 98.7212 13.3506C98.8432 13.4735 98.913 13.6393 98.9162 13.8129V15.2322C98.9162 15.6906 98.6638 15.9434 98.2606 15.9434H91.5961V23.1571C91.5961 25.3394 92.3535 26.1514 93.7163 26.1514C94.7261 26.1514 95.4332 25.5389 95.888 24.7812C96.1907 24.2735 96.4934 24.2229 96.796 24.2229H98.2104C98.6136 24.2229 98.9162 24.4225 98.9162 24.9807C98.9162 27.2654 96.3427 29.1938 93.7163 29.1938C90.6893 29.1938 88.0641 27.6202 88.0641 22.8489V16.0469H85.8936C85.4377 16.0469 85.1865 15.7931 85.1865 15.3359V13.8129C85.1895 13.7228 85.2103 13.6342 85.2476 13.5523C85.2849 13.4703 85.3379 13.3965 85.4035 13.3352C85.4693 13.2739 85.5464 13.2264 85.6306 13.1952C85.7147 13.1641 85.804 13.1498 85.8936 13.1536H88.2149V10.3108C88.2127 10.2168 88.2296 10.1234 88.2644 10.0362C88.2992 9.94905 88.3513 9.86984 88.4173 9.80339C88.4834 9.73696 88.5622 9.68472 88.6489 9.64972C88.7357 9.61472 88.8285 9.59771 88.922 9.59978H90.8411Z" fill="#00080D" fill-opacity="0.8"/>
<path fill-rule="evenodd" clip-rule="evenodd" d="M108.005 12.7988C112.447 12.7988 115.88 15.5393 115.88 20.971C115.88 26.6049 112.447 29.1939 108.005 29.1939C103.714 29.1939 100.079 26.6049 100.079 21.0216C100.079 15.4889 103.714 12.7988 108.005 12.7988ZM108.005 15.8423C105.834 15.8423 103.714 17.3655 103.714 20.9699C103.714 24.372 105.682 26.1478 108.055 26.1478C110.327 26.1478 112.245 24.2698 112.245 20.9699C112.245 17.3655 110.327 15.8423 108.005 15.8423Z" fill="#00080D" fill-opacity="0.8"/>
<path d="M124.413 12.8008C128.603 12.8008 130.723 14.7292 131.329 17.0643C131.427 17.5215 131.127 17.774 130.673 17.774H128.351C128.098 17.774 127.895 17.673 127.644 17.3688C126.836 16.4039 125.983 15.8458 124.261 15.8458C122.539 15.8458 121.283 16.6578 121.283 17.7236C121.283 18.739 121.989 19.1962 123.908 19.3995L126.331 19.652C129.865 20.0069 131.683 21.3266 131.683 24.0672C131.683 27.1133 128.906 29.1946 124.816 29.1946C121.233 29.1946 118.506 27.8243 117.648 25.1849C117.496 24.7252 117.698 24.2199 118.304 24.2199H120.475C120.778 24.2199 120.929 24.321 121.131 24.6253C121.838 25.6432 123.1 26.1485 124.666 26.1485C126.735 26.1485 128.048 25.5839 128.048 24.3209C128.048 23.3056 127.038 22.7475 125.473 22.5959L122.948 22.3433C119.718 22.039 117.748 20.6169 117.748 17.8259C117.748 14.5259 120.425 12.8008 124.413 12.8008Z" fill="#00080D" fill-opacity="0.8"/>
<path fill-rule="evenodd" clip-rule="evenodd" d="M158.995 12.7988C163.434 12.7988 166.869 15.5393 166.869 20.971C166.869 26.6049 163.437 29.1939 158.995 29.1939C154.703 29.1939 151.068 26.6049 151.068 21.0216C151.068 15.4889 154.703 12.7988 158.995 12.7988ZM158.995 15.8423C156.824 15.8423 154.703 17.3655 154.703 20.9699C154.703 24.372 156.671 26.1478 159.045 26.1478C161.316 26.1478 163.235 24.2698 163.235 20.9699C163.235 17.3655 161.316 15.8423 158.995 15.8423Z" fill="#00080D" fill-opacity="0.8"/>
<path d="M173.33 9.59978C173.503 9.60334 173.667 9.67411 173.789 9.79724C173.912 9.92036 173.982 10.0864 173.984 10.2603V13.1536H180.753C180.926 13.1568 181.09 13.2273 181.213 13.3503C181.334 13.4732 181.405 13.639 181.407 13.8129V15.2322C181.407 15.6906 181.157 15.9434 180.753 15.9434H174.085V23.1571C174.085 25.3394 174.839 26.1514 176.205 26.1514C177.213 26.1514 177.92 25.5389 178.375 24.7812C178.677 24.2735 178.98 24.2229 179.283 24.2229H180.697C181.1 24.2229 181.403 24.4225 181.403 24.9807C181.403 27.2654 178.83 29.1938 176.205 29.1938C173.177 29.1938 170.552 27.6202 170.552 22.8489V16.0469H168.382C167.925 16.0469 167.674 15.7931 167.674 15.3359V13.8129C167.678 13.7228 167.698 13.6342 167.735 13.5523C167.772 13.4703 167.825 13.3965 167.891 13.3352C167.957 13.274 168.034 13.2264 168.118 13.1952C168.203 13.1641 168.291 13.1498 168.382 13.1536H170.703V10.3108C170.702 10.2169 170.719 10.1235 170.753 10.0364C170.788 9.94918 170.839 9.86998 170.906 9.80352C170.972 9.73706 171.051 9.68474 171.137 9.64972C171.224 9.61472 171.317 9.59771 171.41 9.59978H173.33Z" fill="#00080D" fill-opacity="0.8"/>
<path fill-rule="evenodd" clip-rule="evenodd" d="M57.2679 12.7952C58.3376 12.7857 59.3949 13.0242 60.358 13.4923C61.321 13.9603 62.1638 14.6454 62.8209 15.4941V13.9116C62.8209 13.4582 63.0734 13.1538 63.528 13.1538H65.4472C65.8504 13.1539 66.1029 13.4583 66.1029 13.9154V28.0764C66.1029 28.5297 65.8002 28.8341 65.3958 28.8341H63.4777C63.3882 28.8309 63.3001 28.8102 63.2186 28.7728C63.1372 28.7354 63.0638 28.6822 63.0028 28.6162C62.9417 28.5504 62.8943 28.4731 62.8631 28.3887C62.8319 28.3042 62.8175 28.2144 62.8209 28.1244V26.3765C61.7445 27.9198 59.7548 29.1902 57.1172 29.1902C53.1795 29.1902 49.5947 26.4485 49.5947 21.0181C49.5947 15.6368 53.28 12.7952 57.2679 12.7952ZM57.8746 15.8425C55.6502 15.8425 53.2273 17.3152 53.2273 20.9701C53.2273 24.5744 55.6024 26.1479 57.8746 26.1479C60.4482 26.1479 62.8246 24.1689 62.8209 20.9701C62.8209 17.4668 60.2472 15.8427 57.8746 15.8425Z" fill="#00080D" fill-opacity="0.8"/>
</svg>
